<?xml version="1.0" encoding="UTF-8" standalone="no"?>
<!DOCTYPE svg PUBLIC "-//W3C//DTD SVG 20010904//EN"
"http://www.w3.org/TR/2001/REC-SVG-20010904/DTD/svg10.dtd">
<!-- Created with Sodipodi ("http://www.sodipodi.com/") -->
<svg
   width="48pt"
   height="48pt"
   viewBox="0 0 48 48"
   style="overflow:visible;enable-background:new 0 0 48 48"
   xml:space="preserve"
   xmlns="http://www.w3.org/2000/svg"
   xmlns:xap="http://ns.adobe.com/xap/1.0/"
   xmlns:xapGImg="http://ns.adobe.com/xap/1.0/g/img/"
   xmlns:rdf="http://www.w3.org/1999/02/22-rdf-syntax-ns#"
   xmlns:xml="http://www.w3.org/XML/1998/namespace"
   xmlns:xapMM="http://ns.adobe.com/xap/1.0/mm/"
   xmlns:pdf="http://ns.adobe.com/pdf/1.3/"
   xmlns:dc="http://purl.org/dc/elements/1.1/"
   xmlns:a="http://ns.adobe.com/AdobeSVGViewerExtensions/3.0/"
   xmlns:x="adobe:ns:meta/"
   xmlns:sodipodi="http://sodipodi.sourceforge.net/DTD/sodipodi-0.dtd"
   xmlns:xlink="http://www.w3.org/1999/xlink"
   id="svg589"
   sodipodi:version="0.32"
   sodipodi:docname="/home/david/Desktop/temp/devices/gnome-dev-floppy.svg"
   sodipodi:docbase="/home/david/Desktop/temp/devices/">
  <defs
     id="defs677" />
  <sodipodi:namedview
     id="base" />
  
  <g
     id="Layer_1">
    <path
       style="opacity:0.2;"
       d="M9.416,5.208c-2.047,0-3.712,1.693-3.712,3.775V39.15c0,2.082,1.666,3.775,3.712,3.775h29.401     c2.047,0,3.712-1.693,3.712-3.775V8.983c0-2.082-1.665-3.775-3.712-3.775H9.416z"
       id="path592" />
    <path
       style="opacity:0.2;"
       d="M9.041,4.833c-2.047,0-3.712,1.693-3.712,3.775v30.167c0,2.082,1.666,3.775,3.712,3.775h29.401     c2.047,0,3.712-1.693,3.712-3.775V8.608c0-2.082-1.665-3.775-3.712-3.775H9.041z"
       id="path593" />
    <path
       style="fill:#00008D;"
       d="M8.854,4.646c-2.047,0-3.712,1.693-3.712,3.775v30.167c0,2.082,1.666,3.775,3.712,3.775h29.401     c2.047,0,3.712-1.693,3.712-3.775V8.42c0-2.082-1.665-3.775-3.712-3.775H8.854z"
       id="path594" />
    <path
       style="fill:#00008D;"
       d="M8.854,5.021c-1.84,0-3.337,1.525-3.337,3.4v30.167c0,1.875,1.497,3.4,3.337,3.4h29.401     c1.84,0,3.337-1.525,3.337-3.4V8.42c0-1.875-1.497-3.4-3.337-3.4H8.854z"
       id="path595" />
    <path
       id="path166_1_"
       style="fill:#FFFFFF;"
       d="M40.654,38.588c0,1.36-1.074,2.463-2.399,2.463H8.854c-1.326,0-2.4-1.103-2.4-2.463V8.42     c0-1.36,1.074-2.462,2.4-2.462h29.401c1.325,0,2.399,1.103,2.399,2.462V38.588z" />
    <linearGradient
       id="path166_2_"
       gradientUnits="userSpaceOnUse"
       x1="-149.0464"
       y1="251.1436"
       x2="-149.0464"
       y2="436.303"
       gradientTransform="matrix(0.1875 0 0 -0.1875 51.5 83.75)">
      <stop
         offset="0"
         style="stop-color:#B4E2FF"
         id="stop598" />
      <stop
         offset="1"
         style="stop-color:#006DFF"
         id="stop599" />
      <a:midPointStop
         offset="0"
         style="stop-color:#B4E2FF"
         id="midPointStop600" />
      <a:midPointStop
         offset="0.5"
         style="stop-color:#B4E2FF"
         id="midPointStop601" />
      <a:midPointStop
         offset="1"
         style="stop-color:#006DFF"
         id="midPointStop602" />
    </linearGradient>
    <path
       id="path166"
       style="fill:url(#path166_2_);"
       d="M40.654,38.588c0,1.36-1.074,2.463-2.399,2.463H8.854c-1.326,0-2.4-1.103-2.4-2.463V8.42     c0-1.36,1.074-2.462,2.4-2.462h29.401c1.325,0,2.399,1.103,2.399,2.462V38.588z" />
    <path
       style="fill:#FFFFFF;"
       d="M8.854,6.521c-1.013,0-1.837,0.852-1.837,1.9v30.167c0,1.048,0.824,1.9,1.837,1.9h29.401     c1.013,0,1.837-0.853,1.837-1.9V8.42c0-1.048-0.824-1.9-1.837-1.9H8.854z"
       id="path604" />
    <linearGradient
       id="XMLID_1_"
       gradientUnits="userSpaceOnUse"
       x1="7.3057"
       y1="7.2559"
       x2="50.7728"
       y2="50.7231">
      <stop
         offset="0"
         style="stop-color:#94CAFF"
         id="stop606" />
      <stop
         offset="1"
         style="stop-color:#006DFF"
         id="stop607" />
      <a:midPointStop
         offset="0"
         style="stop-color:#94CAFF"
         id="midPointStop608" />
      <a:midPointStop
         offset="0.5"
         style="stop-color:#94CAFF"
         id="midPointStop609" />
      <a:midPointStop
         offset="1"
         style="stop-color:#006DFF"
         id="midPointStop610" />
    </linearGradient>
    <path
       style="fill:url(#XMLID_1_);"
       d="M8.854,6.521c-1.013,0-1.837,0.852-1.837,1.9v30.167c0,1.048,0.824,1.9,1.837,1.9h29.401     c1.013,0,1.837-0.853,1.837-1.9V8.42c0-1.048-0.824-1.9-1.837-1.9H8.854z"
       id="path611" />
    <linearGradient
       id="XMLID_2_"
       gradientUnits="userSpaceOnUse"
       x1="23.5039"
       y1="2.187"
       x2="23.5039"
       y2="34.4368">
      <stop
         offset="0"
         style="stop-color:#428AFF"
         id="stop613" />
      <stop
         offset="1"
         style="stop-color:#C9E6FF"
         id="stop614" />
      <a:midPointStop
         offset="0"
         style="stop-color:#428AFF"
         id="midPointStop615" />
      <a:midPointStop
         offset="0.5"
         style="stop-color:#428AFF"
         id="midPointStop616" />
      <a:midPointStop
         offset="1"
         style="stop-color:#C9E6FF"
         id="midPointStop617" />
    </linearGradient>
    <path
       style="fill:url(#XMLID_2_);"
       d="M36.626,6.861c0,0-26.184,0-26.914,0c0,0.704,0,16.59,0,17.294c0.721,0,26.864,0,27.583,0     c0-0.704,0-16.59,0-17.294C36.988,6.861,36.626,6.861,36.626,6.861z"
       id="path618" />
    <polygon
       id="path186_1_"
       style="fill:#FFFFFF;"
       points="35.809,6.486 10.221,6.486 10.221,23.405 36.788,23.405 36.788,6.486 " />
    <linearGradient
       id="path186_2_"
       gradientUnits="userSpaceOnUse"
       x1="-104.5933"
       y1="411.6699"
       x2="-206.815"
       y2="309.4482"
       gradientTransform="matrix(0.1875 0 0 -0.1875 51.5 83.75)">
      <stop
         offset="0"
         style="stop-color:#CCCCCC"
         id="stop621" />
      <stop
         offset="1"
         style="stop-color:#F0F0F0"
         id="stop622" />
      <a:midPointStop
         offset="0"
         style="stop-color:#CCCCCC"
         id="midPointStop623" />
      <a:midPointStop
         offset="0.5"
         style="stop-color:#CCCCCC"
         id="midPointStop624" />
      <a:midPointStop
         offset="1"
         style="stop-color:#F0F0F0"
         id="midPointStop625" />
    </linearGradient>
    <polygon
       id="path186"
       style="fill:url(#path186_2_);"
       points="35.809,6.486 10.221,6.486 10.221,23.405 36.788,23.405 36.788,6.486 " />
    <path
       style="fill:#FFFFFF;stroke:#FFFFFF;stroke-width:0.1875;"
       d="M11.488,7.019c0,0.698,0,14.542,0,15.239c0.716,0,23.417,0,24.133,0c0-0.698,0-14.541,0-15.239     C34.904,7.019,12.204,7.019,11.488,7.019z"
       id="path627" />
    <linearGradient
       id="XMLID_3_"
       gradientUnits="userSpaceOnUse"
       x1="34.5967"
       y1="3.5967"
       x2="18.4087"
       y2="19.7847">
      <stop
         offset="0"
         style="stop-color:#FFFFFF"
         id="stop629" />
      <stop
         offset="0.5506"
         style="stop-color:#E6EDFF"
         id="stop630" />
      <stop
         offset="1"
         style="stop-color:#FFFFFF"
         id="stop631" />
      <a:midPointStop
         offset="0"
         style="stop-color:#FFFFFF"
         id="midPointStop632" />
      <a:midPointStop
         offset="0.5"
         style="stop-color:#FFFFFF"
         id="midPointStop633" />
      <a:midPointStop
         offset="0.5506"
         style="stop-color:#E6EDFF"
         id="midPointStop634" />
      <a:midPointStop
         offset="0.5"
         style="stop-color:#E6EDFF"
         id="midPointStop635" />
      <a:midPointStop
         offset="1"
         style="stop-color:#FFFFFF"
         id="midPointStop636" />
    </linearGradient>
    <path
       style="fill:url(#XMLID_3_);stroke:#FFFFFF;stroke-width:0.1875;"
       d="M11.488,7.019c0,0.698,0,14.542,0,15.239c0.716,0,23.417,0,24.133,0c0-0.698,0-14.541,0-15.239     C34.904,7.019,12.204,7.019,11.488,7.019z"
       id="path637" />
    <linearGradient
       id="path205_1_"
       gradientUnits="userSpaceOnUse"
       x1="-174.4409"
       y1="300.0908"
       x2="-108.8787"
       y2="210.2074"
       gradientTransform="matrix(0.1875 0 0 -0.1875 51.5 83.75)">
      <stop
         offset="0"
         style="stop-color:#003399"
         id="stop639" />
      <stop
         offset="0.2697"
         style="stop-color:#0035ED"
         id="stop640" />
      <stop
         offset="1"
         style="stop-color:#57ADFF"
         id="stop641" />
      <a:midPointStop
         offset="0"
         style="stop-color:#003399"
         id="midPointStop642" />
      <a:midPointStop
         offset="0.5"
         style="stop-color:#003399"
         id="midPointStop643" />
      <a:midPointStop
         offset="0.2697"
         style="stop-color:#0035ED"
         id="midPointStop644" />
      <a:midPointStop
         offset="0.5"
         style="stop-color:#0035ED"
         id="midPointStop645" />
      <a:midPointStop
         offset="1"
         style="stop-color:#57ADFF"
         id="midPointStop646" />
    </linearGradient>
    <rect
       id="path205"
       x="12.154"
       y="26.479"
       style="fill:url(#path205_1_);"
       width="22.007"
       height="13.978" />
    <linearGradient
       id="XMLID_4_"
       gradientUnits="userSpaceOnUse"
       x1="21.8687"
       y1="25.1875"
       x2="21.8687"
       y2="44.6251">
      <stop
         offset="0"
         style="stop-color:#DFDFDF"
         id="stop649" />
      <stop
         offset="1"
         style="stop-color:#7D7D99"
         id="stop650" />
      <a:midPointStop
         offset="0"
         style="stop-color:#DFDFDF"
         id="midPointStop651" />
      <a:midPointStop
         offset="0.5"
         style="stop-color:#DFDFDF"
         id="midPointStop652" />
      <a:midPointStop
         offset="1"
         style="stop-color:#7D7D99"
         id="midPointStop653" />
    </linearGradient>
    <path
       style="fill:url(#XMLID_4_);"
       d="M13.244,27.021c-0.311,0-0.563,0.252-0.563,0.563v13.104c0,0.312,0.252,0.563,0.563,0.563h17.249     c0.311,0,0.563-0.251,0.563-0.563V27.583c0-0.311-0.252-0.563-0.563-0.563H13.244z M18.85,30.697c0,0.871,0,5.078,0,5.949     c-0.683,0-2.075,0-2.759,0c0-0.871,0-5.078,0-5.949C16.775,30.697,18.167,30.697,18.85,30.697z"
       id="path654" />
    <linearGradient
       id="XMLID_5_"
       gradientUnits="userSpaceOnUse"
       x1="-158.0337"
       y1="288.0684"
       x2="-158.0337"
       y2="231.3219"
       gradientTransform="matrix(0.1875 0 0 -0.1875 51.5 83.75)">
      <stop
         offset="0"
         style="stop-color:#F0F0F0"
         id="stop656" />
      <stop
         offset="0.6348"
         style="stop-color:#CECEDB"
         id="stop657" />
      <stop
         offset="0.8595"
         style="stop-color:#B1B1C5"
         id="stop658" />
      <stop
         offset="1"
         style="stop-color:#FFFFFF"
         id="stop659" />
      <a:midPointStop
         offset="0"
         style="stop-color:#F0F0F0"
         id="midPointStop660" />
      <a:midPointStop
         offset="0.5"
         style="stop-color:#F0F0F0"
         id="midPointStop661" />
      <a:midPointStop
         offset="0.6348"
         style="stop-color:#CECEDB"
         id="midPointStop662" />
      <a:midPointStop
         offset="0.5"
         style="stop-color:#CECEDB"
         id="midPointStop663" />
      <a:midPointStop
         offset="0.8595"
         style="stop-color:#B1B1C5"
         id="midPointStop664" />
      <a:midPointStop
         offset="0.5"
         style="stop-color:#B1B1C5"
         id="midPointStop665" />
      <a:midPointStop
         offset="1"
         style="stop-color:#FFFFFF"
         id="midPointStop666" />
    </linearGradient>
    <path
       style="fill:url(#XMLID_5_);"
       d="M13.244,27.583v13.104h17.249V27.583H13.244z M19.413,37.209h-3.884v-7.074h3.884V37.209z"
       id="path667" />
    <linearGradient
       id="path228_1_"
       gradientUnits="userSpaceOnUse"
       x1="-68.1494"
       y1="388.4561"
       x2="-68.1494"
       y2="404.6693"
       gradientTransform="matrix(0.1875 0 0 -0.1875 51.5 83.75)">
      <stop
         offset="0"
         style="stop-color:#3399FF"
         id="stop669" />
      <stop
         offset="1"
         style="stop-color:#000000"
         id="stop670" />
      <a:midPointStop
         offset="0"
         style="stop-color:#3399FF"
         id="midPointStop671" />
      <a:midPointStop
         offset="0.5"
         style="stop-color:#3399FF"
         id="midPointStop672" />
      <a:midPointStop
         offset="1"
         style="stop-color:#000000"
         id="midPointStop673" />
    </linearGradient>
    <rect
       id="path228"
       x="37.83"
       y="9.031"
       style="fill:url(#path228_1_);"
       width="1.784"
       height="1.785" />
    <polyline
       id="_x3C_Slice_x3E_"
       style="fill:none;"
       points="0,48 0,0 48,0 48,48 " />
  </g>
</svg>
