<?xml version="1.0" encoding="UTF-8" standalone="no"?>
<svg
   width="313.95312"
   height="39.972744"
   version="1.1"
   id="svg2"
   sodipodi:docname="ffi-horiz-light.svg"
   inkscape:version="1.3.2 (091e20e, 2023-11-25)"
   xmlns:inkscape="http://www.inkscape.org/namespaces/inkscape"
   xmlns:sodipodi="http://sodipodi.sourceforge.net/DTD/sodipodi-0.dtd"
   xmlns:xlink="http://www.w3.org/1999/xlink"
   xmlns="http://www.w3.org/2000/svg"
   xmlns:svg="http://www.w3.org/2000/svg">
  <sodipodi:namedview
     id="namedview2"
     pagecolor="#ffffff"
     bordercolor="#000000"
     borderopacity="0.25"
     inkscape:showpageshadow="2"
     inkscape:pageopacity="0.0"
     inkscape:pagecheckerboard="0"
     inkscape:deskcolor="#d1d1d1"
     inkscape:zoom="4.6486824"
     inkscape:cx="269.96897"
     inkscape:cy="18.392308"
     inkscape:window-width="1744"
     inkscape:window-height="942"
     inkscape:window-x="1812"
     inkscape:window-y="25"
     inkscape:window-maximized="0"
     inkscape:current-layer="svg2"
     inkscape:clip-to-page="false" />
  <path
     d="m 8.151795,17.770103 h 8.453713 v 6.498602 H 8.151795 V 38.615617 H 0 V 3.2232347 h 18.970534 l -0.855435,6.54859 H 8.151795 V 17.770103 M 23.32319,38.615617 V 19.269781 H 20.605925 V 13.37105 H 30.871148 V 38.643388 H 23.32319 M 31.424665,4.6507047 c 0,0.633197 -0.117413,1.249731 -0.352238,1.849602 -0.231556,0.561501 -0.573719,1.071375 -1.006394,1.499677 -0.402558,0.43324 -0.888982,0.783165 -1.459272,1.049774 -0.57029,0.233283 -1.174127,0.349925 -1.81151,0.349925 -0.67093,0 -1.29154,-0.116642 -1.86183,-0.349925 -0.536743,-0.266609 -1.006394,-0.616534 -1.408952,-1.049774 -0.402558,-0.43324 -0.721249,-0.933132 -0.956075,-1.499677 -0.234825,-0.599871 -0.352238,-1.216405 -0.352238,-1.849602 0,-1.266394 0.436105,-2.349494 1.308313,-3.2493 0.849601,-0.92396698 2.061893,-1.43489538 3.321102,-1.39969898 0.610537,-0.006 1.213906,0.131004 1.76119,0.399914 0.57029,0.233283 1.056714,0.566544 1.459272,0.99978498 0.432675,0.428302 0.774838,0.938176 1.006394,1.499677 0.234825,0.533218 0.352238,1.116426 0.352238,1.749623 M 48.189519,37.71581 c -0.67093,0.466566 -1.543139,0.849817 -2.616626,1.149753 -0.940693,0.316657 -1.925422,0.485323 -2.918544,0.499892 -1.476045,0 -2.666945,-0.266609 -3.5727,-0.799828 C 38.209441,38.032409 37.538511,37.315896 37.06886,36.41609 36.59921,35.516284 36.297291,34.46651 36.163105,33.266768 36.025595,32.005026 35.9584,30.736697 35.961827,29.467586 V 2.1734607 l 7.497638,-1.099764 V 29.017682 l 0.05032,2.199527 c 0.03355,0.533219 0.100639,0.949796 0.201278,1.249731 0.10064,0.266609 0.279554,0.43324 0.452878,0.499892 0.234825,0.06665 0.536744,0.09998 0.905755,0.09998 0.201279,0 0.469651,-0.04999 0.805115,-0.149968 0.332276,-0.09866 0.652833,-0.232747 0.956075,-0.399914 l 1.358633,5.198881 m 9.001638,-10.147815 c 0.134186,2.366157 0.603837,3.999139 1.408952,4.898945 0.805116,0.899806 1.845057,1.34971 3.119823,1.34971 1.123741,0.01014 2.237408,-0.211134 3.270782,-0.649861 0.987746,-0.456478 1.945701,-0.974049 2.868224,-1.549666 l 2.566306,4.898945 c -1.408952,1.033111 -2.901771,1.78295 -4.478455,2.221744 -1.533015,0.465062 -3.127155,0.700928 -4.730054,0.69985 -3.790752,0 -6.62543,-1.183079 -8.504033,-3.549236 -1.845056,-2.399484 -2.79554,-5.648784 -2.79554,-9.72013 0,-2.066222 0.234826,-3.932487 0.704476,-5.598795 0.469651,-1.699634 1.157354,-3.132659 2.063109,-4.299075 0.879082,-1.177984 2.037097,-2.12235 3.371421,-2.749408 1.341859,-0.666523 2.901771,-0.999785 4.679734,-0.999785 1.845056,0 3.404968,0.333262 4.679734,0.999785 1.274766,0.666523 2.297934,1.599656 3.069503,2.799398 0.805115,1.199741 1.375406,2.616103 1.71087,4.249085 0.369012,1.632982 0.553517,3.399268 0.553517,5.298859 0,0.199957 -0.01677,0.48323 -0.05032,0.849817 0.003,0.284088 -0.01377,0.568044 -0.05032,0.849818 H 57.163202 M 60.635263,17.37019 c -1.073488,0 -1.878603,0.416577 -2.415347,1.249731 -0.503197,0.799827 -0.838662,2.199526 -1.006394,4.199096 h 6.793162 c -0.06709,-1.932918 -0.402558,-3.315953 -1.006395,-4.149107 -0.57029,-0.86648 -1.358632,-1.29972 -2.365026,-1.29972 m 22.800424,0.399913 h 8.453714 v 6.498602 H 83.435687 V 38.615617 H 75.283892 V 3.2232347 h 18.970539 l -0.85544,6.54859 h -9.963304 v 7.9982783"
     id="path1"
     style="stroke-width:2.78634;fill:#ffffff;fill-opacity:1"
     sodipodi:nodetypes="ccccccccccccccccccccccscscsccccccccccsccccccccsccccscccccccscccssccscccccccccccccccccccc" />
  <use
     xlink:href="#A"
     id="use1"
     transform="matrix(2.79554,0,0,2.77718,-22.467755,-2800.4733)"
     style="fill:#ffffff;fill-opacity:1" />
  <path
     d="m 135.25661,20.069609 a 4.053533,4.026911 0 0 0 -1.20767,-0.599871 c -0.36901,-0.133305 -0.83866,-0.199957 -1.40895,-0.199957 -0.77157,0 -1.40896,0.277718 -1.91215,0.749838 -0.46965,0.466567 -0.93931,1.183079 -1.40896,2.149538 v 16.44646 h -7.44731 V 19.369759 l -0.10064,-2.949365 c -0.0336,-1.033111 -0.18451,-2.049559 -0.45288,-3.049344 l 5.98805,-0.799827 c 0.23482,0.43324 0.48642,0.983121 0.75479,1.649644 0.26837,0.666524 0.48642,1.38859 0.65416,2.221744 0.53674,-1.166415 1.20767,-2.116211 2.01279,-2.849386 0.83866,-0.733176 1.89537,-1.099764 3.17014,-1.099764 0.73802,0 1.35863,0.08332 1.86183,0.277718 a 8.6382186,8.5814862 0 0 1 1.61023,0.799828 l -2.11343,6.498602 m 11.74127,18.546008 h -7.44732 V 19.369759 l -0.10064,-2.949365 c -0.0336,-1.033111 -0.1845,-2.049559 -0.45288,-3.049344 l 5.98805,-0.799827 a 33.798079,33.576106 0 0 1 1.35863,2.849386 13.446547,13.358236 0 0 1 2.81791,-2.099548 7.1565824,7.1095808 0 0 1 3.42174,-0.799828 c 1.34186,0 2.43212,0.283273 3.27078,0.849817 a 5.730857,5.693219 0 0 1 2.06311,2.221744 c 1.00639,-0.999784 2.02956,-1.766286 3.0695,-2.299505 1.07349,-0.533218 2.24762,-0.799828 3.52238,-0.799828 1.34186,0 2.43212,0.216621 3.27078,0.649861 0.83867,0.43324 1.47605,1.033111 1.91215,1.799612 0.46965,0.733176 0.77157,1.599656 0.90576,2.599441 a 18.366698,18.246073 0 0 1 0.2516,3.099333 v 17.946137 h -7.49764 V 20.241794 c 0,-1.632982 -0.53675,-2.449473 -1.61023,-2.449473 -0.53675,0 -1.0064,0.116641 -1.40896,0.349925 -0.40255,0.233283 -0.88898,0.59987 -1.45927,1.099763 v 19.345836 h -7.24604 V 20.291783 c 0,-1.632982 -0.55351,-2.449473 -1.66055,-2.449473 -0.50319,0 -0.98962,0.116642 -1.45927,0.349925 -0.4361,0.233283 -0.9393,0.616534 -1.50959,1.149752 v 19.245858 m 47.636,-6.270873 0.0503,2.949365 c 0.0671,1.033111 0.23483,2.049559 0.5032,3.049344 l -5.83709,0.799828 a 14.872273,14.774598 0 0 1 -0.60384,-1.249731 l -0.50319,-1.449688 c -0.80512,0.86648 -1.71087,1.56633 -2.71727,2.099548 a 7.2124932,7.1651244 0 0 1 -3.27078,0.749839 c -2.31471,0 -4.12622,-0.683187 -5.43453,-2.049559 -1.27477,-1.399699 -1.91215,-3.29929 -1.91215,-5.698774 0,-1.666308 0.33546,-3.066006 1.00639,-4.199096 a 8.246843,8.192681 0 0 1 2.76759,-2.799397 c 1.17413,-0.733176 2.49921,-1.249731 3.97526,-1.549667 a 20.826773,20.689991 0 0 1 4.62941,-0.499892 v -1.449688 c 0,-0.933132 -0.21805,-1.616319 -0.65416,-2.049559 -0.40255,-0.466566 -1.24121,-0.699849 -2.51598,-0.699849 -0.73802,0 -1.62701,0.149968 -2.66695,0.449903 -1.03994,0.266609 -2.09665,0.683186 -3.17014,1.249731 l -1.86183,-5.298859 a 20.379487,20.245642 0 0 1 4.0759,-1.499678 c 1.47604,-0.399914 2.95209,-0.59987 4.42813,-0.59987 a 15.766846,15.663295 0 0 1 3.92494,0.449903 8.3586646,8.3037682 0 0 1 3.06951,1.399698 6.289965,6.248655 0 0 1 2.01278,2.449473 c 0.46966,0.999785 0.70448,2.199527 0.70448,3.599225 v 11.84745 m -7.34668,-5.276642 c -2.01279,0 -3.38819,0.366588 -4.12622,1.099764 -0.70447,0.699849 -1.05671,1.682971 -1.05671,2.949365 0,0.966458 0.13419,1.749623 0.40256,2.349494 0.30192,0.599871 0.82189,0.899806 1.55991,0.899806 a 2.8514508,2.8327236 0 0 0 1.61023,-0.499892 9.0575496,8.9980632 0 0 0 1.61023,-1.449688 V 27.04033 m 28.41946,10.67548 c -0.40256,0.233283 -0.90575,0.449903 -1.50959,0.64986 -0.57029,0.199957 -1.17413,0.366588 -1.81151,0.499893 a 12.747662,12.663941 0 0 1 -1.91215,0.349924 c -0.60384,0.09998 -1.15735,0.149968 -1.66055,0.149968 -1.37541,0 -2.53276,-0.199957 -3.47206,-0.599871 a 5.3674368,5.3321856 0 0 1 -2.26439,-1.599655 c -0.57029,-0.733176 -0.98962,-1.599656 -1.25799,-2.599441 a 14.620674,14.524651 0 0 1 -0.35224,-3.29929 V 18.969845 h -3.64538 V 13.37105 h 3.67334 V 6.2225887 l 7.49763,-1.099763 V 13.37105 h 6.16137 l -0.70447,5.598795 h -5.48485 v 11.84745 c 0,0.699849 0.0839,1.283057 0.27955,1.749624 0.20128,0.43324 0.63739,0.64986 1.30832,0.64986 0.46965,0 1.00639,-0.08332 1.61023,-0.277718 0.63738,-0.166631 1.3754,-0.449904 2.21406,-0.849817 l 1.35864,5.598794 m 13.15022,-3.321507 a 5.0878828,5.0544676 0 0 1 -0.45288,2.099548 c -0.26837,0.633197 -0.65416,1.199742 -1.15735,1.699634 -0.46966,0.499893 -1.03995,0.883144 -1.71088,1.149753 a 5.0878828,5.0544676 0 0 1 -2.11342,0.449903 c -0.77157,0 -1.49282,-0.149968 -2.16375,-0.449903 a 5.1437936,5.1100112 0 0 1 -1.66055,-1.099763 6.6813406,6.6374602 0 0 1 -1.15736,-1.699635 c -0.26837,-0.666523 -0.40255,-1.383035 -0.40255,-2.149537 a 5.2556152,5.2210984 0 0 1 5.43453,-5.398838 4.752418,4.721206 0 0 1 2.0631,0.449903 c 0.67093,0.26661 1.24122,0.649861 1.71088,1.149753 0.50319,0.466566 0.88898,1.033111 1.15735,1.699634 a 5.0878828,5.0544676 0 0 1 0.45288,2.099548 m 6.13621,-25.0446093 h -3.09467 v -6.098687 h 14.2908 v 6.098687 h -3.0695 V 32.516929 h 3.0695 v 6.098688 h -14.2908 v -6.098688 h 3.06951 V 9.3219217 m 22.27486,29.2936953 h -7.44732 V 19.369759 l -0.10064,-2.949365 c -0.0335,-1.033111 -0.1845,-2.049559 -0.45288,-3.049344 l 5.98805,-0.799827 0.70448,1.349709 a 17.891456,17.773952 0 0 1 0.65415,1.599656 c 1.07349,-1.066437 2.14698,-1.832939 3.22047,-2.299505 a 8.6941294,8.6370298 0 0 1 3.52238,-0.69985 c 1.3754,0 2.53275,0.277718 3.47206,0.749839 0.9393,0.47212 1.67732,1.099763 2.21406,1.899591 a 6.4017866,6.3597422 0 0 1 0.95608,2.399484 17.779634,17.662865 0 0 1 0.27955,3.299289 V 38.643388 H 262.6773 V 20.697251 c 0,-1.832939 -0.62061,-2.77718 -1.86183,-2.77718 -0.63738,0 -1.22444,0.149968 -1.76119,0.449903 -0.53674,0.299936 -1.14058,0.783165 -1.81151,1.449688 v 18.795955 m 32.87555,-25.272338 -0.80511,5.598794 h -4.93133 v 19.645772 h -7.44732 V 18.942073 h -3.11982 v -5.598794 h 3.11982 v -2.949366 c 0,-2.7660713 0.6877,-4.9822613 2.06311,-6.6485693 1.40895,-1.666308 3.52238,-2.499462 6.34028,-2.499462 a 13.30677,13.219377 0 0 1 3.67334,0.499893 c 1.17413,0.299935 2.1973,0.733175 3.0695,1.29972 l -1.91215,5.148892 a 12.607885,12.525082 0 0 0 -1.76119,-0.749839 c -0.67093,-0.266609 -1.34186,-0.399914 -2.01278,-0.399914 -0.80512,0 -1.34186,0.299936 -1.61024,0.899807 -0.26837,0.599871 -0.40255,1.349709 -0.40255,2.2217443 v 3.149322 h 5.73644"
     id="path2"
     style="stroke-width:2.78634;fill:#ffffff;fill-opacity:1" />
  <use
     xlink:href="#A"
     x="70.382004"
     id="use2"
     transform="matrix(2.79554,0,0,2.77718,-22.467755,-2800.4733)"
     style="fill:#ffffff;fill-opacity:1" />
  <ellipse
     cx="223.50937"
     cy="34.386723"
     rx="5.4115152"
     ry="5.5860205"
     fill="#003399"
     id="ellipse2"
     style="stroke-width:0.457133" />
  <defs
     id="defs2">
    <path
       id="A"
       d="m 49.96,1017.738 c 0,0.732 -0.084,1.398 -0.252,1.998 -0.168,0.588 -0.42,1.098 -0.756,1.53 a 3.41,3.41 0 0 1 -1.224,0.99 c -0.48,0.228 -1.038,0.342 -1.674,0.342 -1.32,0 -2.3,-0.426 -2.97,-1.278 -0.648,-0.852 -0.972,-2.046 -0.972,-3.582 0,-1.5 0.336,-2.682 1.008,-3.546 0.672,-0.864 1.662,-1.296 2.97,-1.296 0.648,0 1.212,0.114 1.692,0.342 0.48,0.216 0.882,0.534 1.206,0.954 0.324,0.42 0.564,0.93 0.72,1.53 0.168,0.6 0.252,1.272 0.252,2.016 m -2.682,-0.018 c 0,-0.552 -0.03,-1.014 -0.1,-1.386 -0.048,-0.372 -0.126,-0.672 -0.234,-0.9 -0.096,-0.228 -0.222,-0.4 -0.378,-0.486 a 1.01,1.01 0 0 0 -0.54,-0.144 1.01,1.01 0 0 0 -0.54,0.144 c -0.156,0.096 -0.288,0.258 -0.396,0.486 -0.108,0.228 -0.192,0.528 -0.252,0.9 -0.048,0.36 -0.072,0.816 -0.072,1.368 0,1.02 0.096,1.776 0.288,2.268 0.192,0.48 0.516,0.72 0.972,0.72 0.456,0 0.774,-0.24 0.954,-0.72 0.192,-0.48 0.288,-1.23 0.288,-2.25" />
  </defs>
  <path
     d="M 222.65004,38.865962 V 34.252458 H 222.002 V 32.84576 h 2.44797 v 6.026828 h -1.79993 m 1.93196,-8.106414 c 0,0.150988 -0.0281,0.298025 -0.0844,0.441082 -0.0549,0.1339 -0.13682,0.255497 -0.24001,0.357637 -0.0958,0.103283 -0.21201,0.186766 -0.348,0.250343 -0.13599,0.05567 -0.27998,0.08341 -0.43198,0.08341 -0.16001,0 -0.30801,-0.02783 -0.44399,-0.08341 -0.12809,-0.06354 -0.24003,-0.147031 -0.33601,-0.250343 -0.0958,-0.103367 -0.172,-0.222527 -0.22799,-0.357637 -0.0562,-0.14305 -0.0844,-0.290088 -0.0844,-0.441082 0,-0.302007 0.10372,-0.560297 0.31201,-0.774886 0.20262,-0.22034 0.49172,-0.342187 0.792,-0.333787 0.1456,-0.0017 0.28948,0.03123 0.41999,0.0954 0.136,0.05566 0.25201,0.13512 0.34801,0.238426 0.1032,0.102149 0.18479,0.223731 0.24,0.357636 0.0562,0.127163 0.0844,0.266241 0.0844,0.417242"
     style="fill:#ffffff;fill-opacity:1;stroke-width:0.664476"
     id="path1-9" />
</svg>
